<?xml version="1.0" encoding="UTF-8"?>
<svg xmlns="http://www.w3.org/2000/svg" width="153" height="44" viewBox="0 0 153 44" fill="none">
  <g clip-path="url(#clip0_22_10)">
    <path d="M3 8.84131C3 6.14264 5.14153 3.93092 7.83879 3.84391L18.5 3.5L28.7708 3.18876C31.9677 3.09189 34.4324 5.9801 33.8339 9.12203L29.805 30.2739C29.3422 32.7035 27.1726 34.4297 24.7011 34.3347L7.80783 33.6849C5.12316 33.5817 3 31.3753 3 28.6886V8.84131Z" fill="#32236F"></path>
    <path d="M32.32 19.84C32.32 17.6 32.76 15.6133 33.64 13.88C34.5467 12.1467 35.76 10.8133 37.28 9.88C38.8267 8.94667 40.5467 8.48 42.44 8.48C44.0933 8.48 45.5333 8.81333 46.76 9.48C48.0133 10.1467 49.0133 10.9867 49.76 12V8.84H55.4V31H49.76V27.76C49.04 28.8 48.04 29.6667 46.76 30.36C45.5067 31.0267 44.0533 31.36 42.4 31.36C40.5333 31.36 38.8267 30.88 37.28 29.92C35.76 28.96 34.5467 27.6133 33.64 25.88C32.76 24.12 32.32 22.1067 32.32 19.84ZM49.76 19.92C49.76 18.56 49.4933 17.4 48.96 16.44C48.4267 15.4533 47.7067 14.7067 46.8 14.2C45.8933 13.6667 44.92 13.4 43.88 13.4C42.84 13.4 41.88 13.6533 41 14.16C40.12 14.6667 39.4 15.4133 38.84 16.4C38.3067 17.36 38.04 18.5067 38.04 19.84C38.04 21.1733 38.3067 22.3467 38.84 23.36C39.4 24.3467 40.12 25.1067 41 25.64C41.9067 26.1733 42.8667 26.44 43.88 26.44C44.92 26.44 45.8933 26.1867 46.8 25.68C47.7067 25.1467 48.4267 24.4 48.96 23.44C49.4933 22.4533 49.76 21.28 49.76 19.92ZM64.4694 12.04C65.1894 11.0267 66.176 10.1867 67.4294 9.52C68.7094 8.82667 70.1627 8.48 71.7894 8.48C73.6827 8.48 75.3894 8.94667 76.9094 9.88C78.456 10.8133 79.6694 12.1467 80.5494 13.88C81.456 15.5867 81.9094 17.5733 81.9094 19.84C81.9094 22.1067 81.456 24.12 80.5494 25.88C79.6694 27.6133 78.456 28.96 76.9094 29.92C75.3894 30.88 73.6827 31.36 71.7894 31.36C70.1627 31.36 68.7227 31.0267 67.4694 30.36C66.2427 29.6933 65.2427 28.8533 64.4694 27.84V41.56H58.8694V8.84H64.4694V12.04ZM76.1894 19.84C76.1894 18.5067 75.9094 17.36 75.3494 16.4C74.816 15.4133 74.096 14.6667 73.1894 14.16C72.3094 13.6533 71.3494 13.4 70.3094 13.4C69.296 13.4 68.336 13.6667 67.4294 14.2C66.5494 14.7067 65.8294 15.4533 65.2694 16.44C64.736 17.4267 64.4694 18.5867 64.4694 19.92C64.4694 21.2533 64.736 22.4133 65.2694 23.4C65.8294 24.3867 66.5494 25.1467 67.4294 25.68C68.336 26.1867 69.296 26.44 70.3094 26.44C71.3494 26.44 72.3094 26.1733 73.1894 25.64C74.096 25.1067 74.816 24.3467 75.3494 23.36C75.9094 22.3733 76.1894 21.2 76.1894 19.84ZM89.5788 12.04C90.2988 11.0267 91.2854 10.1867 92.5388 9.52C93.8188 8.82667 95.2721 8.48 96.8988 8.48C98.7921 8.48 100.499 8.94667 102.019 9.88C103.565 10.8133 104.779 12.1467 105.659 13.88C106.565 15.5867 107.019 17.5733 107.019 19.84C107.019 22.1067 106.565 24.12 105.659 25.88C104.779 27.6133 103.565 28.96 102.019 29.92C100.499 30.88 98.7921 31.36 96.8988 31.36C95.2721 31.36 93.8321 31.0267 92.5788 30.36C91.3521 29.6933 90.3521 28.8533 89.5788 27.84V41.56H83.9788V8.84H89.5788V12.04ZM101.299 19.84C101.299 18.5067 101.019 17.36 100.459 16.4C99.9254 15.4133 99.2054 14.6667 98.2988 14.16C97.4188 13.6533 96.4588 13.4 95.4188 13.4C94.4054 13.4 93.4454 13.6667 92.5388 14.2C91.6588 14.7067 90.9388 15.4533 90.3788 16.44C89.8454 17.4267 89.5788 18.5867 89.5788 19.92C89.5788 21.2533 89.8454 22.4133 90.3788 23.4C90.9388 24.3867 91.6588 25.1467 92.5388 25.68C93.4454 26.1867 94.4054 26.44 95.4188 26.44C96.4588 26.44 97.4188 26.1733 98.2988 25.64C99.2054 25.1067 99.9254 24.3467 100.459 23.36C101.019 22.3733 101.299 21.2 101.299 19.84ZM129.688 19.44C129.688 20.24 129.635 20.96 129.528 21.6H113.328C113.461 23.2 114.021 24.4533 115.008 25.36C115.995 26.2667 117.208 26.72 118.648 26.72C120.728 26.72 122.208 25.8267 123.088 24.04H129.128C128.488 26.1733 127.261 27.9333 125.448 29.32C123.635 30.68 121.408 31.36 118.768 31.36C116.635 31.36 114.715 30.8933 113.008 29.96C111.328 29 110.008 27.6533 109.048 25.92C108.115 24.1867 107.648 22.1867 107.648 19.92C107.648 17.6267 108.115 15.6133 109.048 13.88C109.981 12.1467 111.288 10.8133 112.968 9.88C114.648 8.94667 116.581 8.48 118.768 8.48C120.875 8.48 122.755 8.93333 124.408 9.84C126.088 10.7467 127.381 12.04 128.288 13.72C129.221 15.3733 129.688 17.28 129.688 19.44ZM123.888 17.84C123.861 16.4 123.341 15.2533 122.328 14.4C121.315 13.52 120.075 13.08 118.608 13.08C117.221 13.08 116.048 13.5067 115.088 14.36C114.155 15.1867 113.581 16.3467 113.368 17.84H123.888ZM137.376 12.28C138.096 11.1067 139.029 10.1867 140.176 9.52C141.349 8.85333 142.682 8.52 144.176 8.52V14.4H142.696C140.936 14.4 139.602 14.8133 138.696 15.64C137.816 16.4667 137.376 17.9067 137.376 19.96V31H131.776V8.84H137.376V12.28Z" fill="#6A49F2"></path>
    <path d="M18.6794 27.6244C16.1076 27.4265 15.1184 26.6911 8.98552 28.8509C7.71813 29.2973 9.90875 26.556 11.0034 25.923L18.6794 27.6244Z" fill="#6A49F2"></path>
    <path fill-rule="evenodd" clip-rule="evenodd" d="M18.4499 5C19.4628 5 20.3887 5.56976 20.8398 6.4798L25.2396 14.1004L26.0151 15.4457C26.2842 15.8334 26.5295 16.2528 26.7273 16.6802L32.5437 26.7618C33.2796 28.028 32.8365 29.666 31.5703 30.3941C30.3042 31.13 28.6661 30.6948 27.9381 29.4207L25.5562 25.3058C24.0684 27.0625 22.0189 27.9805 20.0247 27.838C18.0305 27.6956 11.0113 25.9467 11.0113 25.9467L9.75311 27.838C9.02508 29.1042 7.60858 31.1696 5.32953 30.3941C4.06339 29.666 3.62024 28.028 4.35618 26.7618L16.068 6.4798C16.5111 5.56976 17.437 5 18.4499 5ZM22.5255 21.673C22.8961 20.5615 22.155 14.1041 18.8204 14.2628C15.4858 14.4215 14.3743 17.5974 14.7448 19.4499C15.1153 21.3025 16.2269 22.0435 18.8204 22.7845C21.414 23.5255 22.155 22.7845 22.5255 21.673Z" fill="white"></path>
    <path d="M28.0568 29.6422L31.697 25.3057L26.7827 16.783C27.2575 17.8196 27.5266 18.9671 27.5266 20.1778C27.5266 22.1482 26.8302 23.8021 25.6432 25.2107C25.5982 25.2642 25.5746 25.2951 25.5641 25.3057L27.9856 29.5156C28.0067 29.5578 28.0304 29.6 28.0568 29.6422Z" fill="url(#paint0_linear_22_10)"></path>
    <path d="M20.5391 6.02078C20.46 6.06035 18.9564 10.4918 21.5678 15.2399C22.4835 16.9047 25.1157 21.2936 26.5137 23.9842C27.3446 22.995 28.4683 19.9167 26.7907 16.783C25.113 13.6493 20.6182 5.98122 20.5391 6.02078Z" fill="url(#paint1_linear_22_10)"></path>
  </g>
  <defs>
    <linearGradient id="paint0_linear_22_10" x1="40.5679" y1="14.2111" x2="42.8707" y2="17.8117" gradientUnits="userSpaceOnUse">
      <stop stop-color="#EEEAFE"></stop>
      <stop offset="1" stop-color="white"></stop>
    </linearGradient>
    <linearGradient id="paint1_linear_22_10" x1="23.8482" y1="6.02063" x2="23.8482" y2="23.9842" gradientUnits="userSpaceOnUse">
      <stop stop-color="#F3E7FD"></stop>
      <stop offset="1" stop-color="#D9D9D9" stop-opacity="0"></stop>
    </linearGradient>
    <clipPath id="clip0_22_10">
      <rect width="153" height="44" fill="white"></rect>
    </clipPath>
  </defs>
</svg>
