<svg version="1.2" xmlns="http://www.w3.org/2000/svg" viewBox="0 0 315 639" width="315" height="639">
	<title>2253738-ai</title>
	<style>
		tspan { white-space:pre } 
		.s0 { fill: #454b60 } 
		.s1 { fill: #ffffff } 
	</style>
	<g id="BACKGROUND">
	</g>
	<g id="OBJECTS">
		<g id="&lt;Group&gt;">
			<g id="&lt;Group&gt;">
				<g id="&lt;Group&gt;">
					<path id="&lt;Compound Path&gt;" fill-rule="evenodd" class="s0" d="m315.5 145.1c1.5 0 2.7 1.2 2.7 2.6v68.6c0 1.4-1.2 2.6-2.7 2.6h-0.9v374.5c0 25.1-20.5 45.6-45.5 45.6h-221.3c-26 0-47.3-21.3-47.3-47.3v-357.6c-1.5 0-2.7-1.2-2.7-2.7v-40.1c0-1.4 1.2-2.6 2.7-2.6v-13.4c-1.5 0-2.7-1.2-2.7-2.6v-40.1c0-1.5 1.2-2.7 2.7-2.7v-22.2c-1.5 0-2.7-1.2-2.7-2.7v-18.7c0-1.4 1.2-2.6 2.7-2.6v-36.5c0-26 21.2-47.2 47.2-47.2h221.4c25.1 0 45.5 20.4 45.5 45.6v99.5zm-17.8-101.3c0-15.5-11.4-26.9-27-26.9h-25.4c-5.4 0-7.4-0.4-7.7 6.4-0.2 3.6-1.5 6.2-3.6 8.5-2.1 2.2-5 3.9-8.3 5-2.2 0.7-4.7 1.5-7.1 1.5h-117.1c-2.4 0-4.9-0.7-7.1-1.4-3.4-1-6.2-2.9-8.3-5.1-2.1-2.3-3.4-5.1-3.6-8.6-0.3-6.9-2.3-6.3-7.8-6.3h-25.6c-15.5 0-29 11.4-29 26.9v545.8c0 15.5 13.5 28.9 29 28.9h221.6c15.6 0 27-13.4 27-28.9zm-157.7-22c0 1.3 1.2 2.2 2.7 2.2h34.7c1.5 0 2.7-0.9 2.7-2.2 0-1.3-1.2-2.2-2.7-2.2h-34.7c-1.5 0-2.7 0.9-2.7 2.2zm55.6-1.5c0-2.1-1.7-3.9-3.9-3.9-2.1 0-3.8 1.8-3.8 3.9 0 2.2 1.7 3.9 3.8 3.9 2.2 0 3.9-1.7 3.9-3.9z"/>
					<path id="&lt;Path&gt;" class="s1" d="m177.3 18h-35.6c-1.5 0-2.7 1.2-2.7 3 0 1.8 1.2 3 2.7 3h35.6c1.5 0 2.7-1.2 2.7-3 0-1.8-1.2-3-2.7-3z"/>
					<path id="&lt;Path&gt;" class="s1" d="m191.1 24.3c-2.1 0-3.8-1.7-3.8-3.8 0-2.1 1.7-3.8 3.8-3.8 2.1 0 3.9 1.7 3.9 3.8 0 2.1-1.8 3.8-3.9 3.8z"/>
				</g>
			</g>
		</g>
	</g>
</svg>